{"title":"Big.Fat.Liar.2002.SWESUB.DVDRip.XviD.-Zen_Bud","uid":5737478,"size":735035392,"categoryP":"video","categoryS":"movies","magnet":"?xt=urn:btih:32a3a860a1d50e8da47176fdeb673120b169cb0d&amp;dn=Big.Fat.Liar.2002.SWESUB.DVDRip.XviD.-Zen_Bud&amp;tr=udp%3A%2F%2Ftracker.openbittorrent.com%3A80&amp;tr=udp%3A%2F%2Fopen.demonii.com%3A1337&amp;tr=udp%3A%2F%2Ftracker.coppersurfer.tk%3A6969&amp;tr=udp%3A%2F%2Fexodus.desync.com%3A6969","seeders":1,"leechers":0,"uploader":null,"files":1,"time":1280872030,"description":"General\nComplete name                    : Big.Fat.Liar.avi\nFormat                           : AVI\nFile size                        : 701 MiB\nDuration                         : 1h 24mn\nOverall bit rate                 : 1 166 Kbps\n\n\nVideo\n\nFormat                           : MPEG-4 Visual\nCodec ID/Hint                    : XviD\nDuration                         : 1h 24mn\nBit rate                         : 1 092 Kbps\nWidth                            : 720 pixels\nHeight                           : 420 pixels\nDisplay aspect ratio             : 16:9\nStream size                      : 657 MiB (94%)\nWriting library                  : XviD 1.2.1 (UTC 2008-12-04)\n\nAudio\n\nFormat                           : MPEG Audio\nCodec ID/Hint                    : MP3\nDuration                         : 1h 24mn\nChannel(s)                       : 2 channels\nSampling rate                    : 48.0 KHz\nStream size                      : 38.5 MiB (5%)\nWriting library                  : LAME3.98.2","torrent":{"xt":"urn:btih:32a3a860a1d50e8da47176fdeb673120b169cb0d","amp;dn":"Big.Fat.Liar.2002.SWESUB.DVDRip.XviD.-Zen_Bud","amp;tr":["udp%3A%2F%2Ftracker.openbittorrent.com%3A80","udp%3A%2F%2Fopen.demonii.com%3A1337","udp%3A%2F%2Ftracker.coppersurfer.tk%3A6969","udp%3A%2F%2Fexodus.desync.com%3A6969"],"infoHash":"32a3a860a1d50e8da47176fdeb673120b169cb0d","infoHashBuffer":{"type":"Buffer","data":[50,163,168,96,161,213,14,141,164,113,118,253,235,103,49,32,177,105,203,13]},"announce":[],"urlList":[]}}